<svg width="166" height="39" viewBox="0 0 166 39" fill="none" xmlns="http://www.w3.org/2000/svg">
<path d="M154.48 13.6399C156.854 13.6399 158.88 14.0932 160.56 14.9999C162.267 15.9066 163.547 17.1332 164.4 18.6799C165.28 20.2266 165.72 21.9732 165.72 23.9199C165.72 25.8132 165.267 27.5332 164.36 29.0799C163.454 30.6266 162.16 31.8532 160.48 32.7599C158.827 33.6932 156.894 34.1866 154.68 34.2399H154.12C151.774 34.2399 149.747 33.7866 148.04 32.8799C146.36 31.9732 145.08 30.7332 144.2 29.1599C143.32 27.5866 142.88 25.8132 142.88 23.8399C142.88 21.9732 143.334 20.2799 144.24 18.7599C145.147 17.2399 146.427 16.0266 148.08 15.1199C149.734 14.1866 151.667 13.6932 153.88 13.6399H154.48ZM154.44 21.1199C153.72 21.1199 153.12 21.4266 152.64 22.0399C152.187 22.6532 151.96 23.3866 151.96 24.2399C151.96 25.0666 152.134 25.7599 152.48 26.3199C152.854 26.8799 153.427 27.1732 154.2 27.1999H154.32C155.04 27.1999 155.6 26.8799 156 26.2399C156.427 25.5999 156.64 24.7866 156.64 23.7999C156.64 23.0266 156.454 22.3999 156.08 21.9199C155.734 21.4132 155.187 21.1466 154.44 21.1199Z" fill="#1E1E1E"/>
<path d="M125.492 18.8801C125.492 17.7867 125.932 16.9067 126.812 16.2401C127.692 15.5734 128.745 15.1067 129.972 14.84C131.198 14.5467 132.358 14.4001 133.452 14.4001C135.292 14.4001 136.745 14.7067 137.812 15.3201C138.878 15.9334 139.652 16.9467 140.132 18.3601C140.638 19.7734 140.892 21.7067 140.892 24.16C140.892 26.9067 140.478 29.2534 139.652 31.2001C138.852 33.1467 137.678 34.2134 136.132 34.4001H135.812C134.718 34.4001 133.812 33.6667 133.092 32.2001C131.145 33.4001 128.945 34.0001 126.492 34.0001C123.585 34.0001 121.065 33.28 118.932 31.84C116.825 30.4 115.225 28.4534 114.132 26C113.038 23.5467 112.492 20.8134 112.492 17.8001C112.492 14.8667 113.078 12.2134 114.252 9.84005C115.452 7.44005 117.145 5.53338 119.332 4.12005C121.518 2.68005 124.065 1.90672 126.972 1.80005H127.652C129.518 1.80005 131.305 2.09338 133.012 2.68005C134.718 3.24005 135.985 4.00005 136.812 4.96005C137.665 5.97338 138.092 7.05338 138.092 8.20005C138.092 9.10672 137.838 9.89338 137.332 10.5601C136.985 11.0134 136.545 11.36 136.012 11.6C135.478 11.8401 134.918 11.9601 134.332 11.9601C133.638 11.9601 133.065 11.8267 132.612 11.5601C131.998 11.2134 131.292 10.9334 130.492 10.7201C129.692 10.4801 128.932 10.3601 128.212 10.3601C127.172 10.3601 126.225 10.7201 125.372 11.4401C124.518 12.1601 123.838 13.12 123.332 14.32C122.852 15.52 122.612 16.8001 122.612 18.1601C122.612 20.1601 123.038 21.8667 123.892 23.2801C124.745 24.6667 125.998 25.4134 127.652 25.5201L128.372 25.5601C129.678 25.5601 130.745 25.3734 131.572 25C131.518 24.0667 131.518 23.2534 131.572 22.5601C129.918 22.5334 128.492 22.24 127.292 21.68C126.092 21.12 125.492 20.1867 125.492 18.8801Z" fill="#1E1E1E"/>
<path d="M75.7944 8.80004C75.7944 7.09337 76.621 5.85337 78.2744 5.08004C79.9277 4.30671 82.221 3.92004 85.1544 3.92004C88.061 3.92004 90.621 4.34671 92.8344 5.20004C95.0744 6.05337 96.1944 7.70671 96.1944 10.16C96.1944 12.0534 95.461 14 93.9944 16C92.5544 18 90.581 19.68 88.0744 21.04C89.781 20.3467 91.541 20 93.3544 20C94.901 20 96.1944 20.2667 97.2344 20.8C98.301 21.3067 98.8877 22.0134 98.9944 22.92L99.0344 23.4C99.0344 24.84 98.3677 26.1334 97.0344 27.28C95.7277 28.4267 94.1144 29.3467 92.1944 30.04C90.301 30.7334 88.4744 31.2 86.7144 31.44C85.3277 31.6267 84.181 31.72 83.2744 31.72C79.301 31.72 76.8744 30.44 75.9944 27.88C75.781 27.24 75.6744 26.6134 75.6744 26C75.6744 23.8934 76.661 21.7734 78.6344 19.64C80.6077 17.5067 82.9544 15.72 85.6744 14.28C83.7544 14.04 82.1144 13.76 80.7544 13.44C79.3944 13.12 78.221 12.5867 77.2344 11.84C76.2744 11.0934 75.7944 10.08 75.7944 8.80004ZM99.9544 18.08C100.168 12.1334 100.688 7.64004 101.514 4.60004C102.341 1.56004 103.608 0.0400391 105.314 0.0400391C106.861 0.0400391 107.968 1.21337 108.634 3.56004C109.301 5.90671 109.634 9.36004 109.634 13.92C109.634 14.8 109.608 16.3067 109.554 18.44C109.341 24.4934 108.821 29.0134 107.994 32C107.194 34.9867 105.928 36.48 104.194 36.48C102.648 36.48 101.541 35.3334 100.874 33.04C100.208 30.7467 99.8744 27.3067 99.8744 22.72C99.8744 21.8134 99.901 20.2667 99.9544 18.08Z" fill="#1E1E1E"/>
<path d="M42.9372 24.6C42.9372 23.7733 43.4572 23.0267 44.4972 22.36C45.5372 21.6667 47.0172 21.1067 48.9372 20.68C50.8572 20.2267 53.0972 19.96 55.6572 19.88H56.6572C58.6572 19.88 60.4839 20.0533 62.1372 20.4C63.7905 20.7467 65.1239 21.2267 66.1372 21.84C67.1505 22.4533 67.7105 23.1467 67.8172 23.92C67.9772 25.2267 67.2439 26.5067 65.6172 27.76C63.9905 29.0133 61.9905 30.0667 59.6172 30.92C60.2572 30.84 60.8839 30.8 61.4972 30.8C62.7772 30.8 64.0039 30.92 65.1772 31.16C66.3772 31.4267 67.3639 31.76 68.1372 32.16C68.9105 32.5867 69.3505 33 69.4572 33.4L69.5372 33.92C69.5372 35.2533 68.2439 36.28 65.6572 37C63.0705 37.7467 59.9505 38.2533 56.2972 38.52C54.4572 38.68 52.6572 38.76 50.8972 38.76C48.5239 38.76 46.6705 38.5333 45.3372 38.08C44.0039 37.6533 43.3372 36.8933 43.3372 35.8C43.3372 34.8667 43.8305 33.8667 44.8172 32.8C45.8039 31.76 47.1639 30.76 48.8972 29.8C50.6572 28.84 52.6305 28.0533 54.8172 27.44C53.6705 27.6 52.3905 27.68 50.9772 27.68C48.7105 27.68 46.8039 27.44 45.2572 26.96C43.7105 26.4533 42.9372 25.6667 42.9372 24.6ZM59.5372 10.96C59.5372 9.54666 59.6839 8 59.9772 6.32C60.2705 4.64 60.8039 3.17333 61.5772 1.92C62.3772 0.639999 63.4305 0 64.7372 0C65.9372 0 66.8972 0.546666 67.6172 1.64C68.3372 2.73333 68.8172 4.21333 69.0572 6.08C70.3905 6.16 71.4705 6.52 72.2972 7.16C73.1505 7.77333 73.5772 8.62667 73.5772 9.72C73.5772 10.84 73.1105 11.7067 72.1772 12.32C71.2705 12.9333 70.1372 13.3067 68.7772 13.44C68.4039 15.36 67.8172 16.88 67.0172 18C66.2172 19.12 65.2305 19.68 64.0572 19.68C62.0839 19.68 60.7239 18.1867 59.9772 15.2C59.1772 16.2133 57.9639 17.0533 56.3372 17.72C54.7105 18.3867 52.9905 18.88 51.1772 19.2C49.3639 19.4933 47.7105 19.64 46.2172 19.64C43.9505 19.64 42.1105 19.2 40.6972 18.32C39.2839 17.4133 38.4572 16.1733 38.2172 14.6C38.1105 13.96 38.0572 13.2133 38.0572 12.36C38.0572 11.0533 38.1905 9.76 38.4572 8.48C38.7239 7.17333 39.0972 6.02667 39.5772 5.04C40.1905 3.81333 40.9239 2.81333 41.7772 2.04C42.6572 1.26666 43.6305 0.879998 44.6972 0.879998C45.8439 0.879998 46.7905 1.25333 47.5372 2C48.3105 2.72 48.7905 3.65333 48.9772 4.8C49.0839 5.36 49.1372 6.05333 49.1372 6.88C49.1372 8.64 48.8572 10.24 48.2972 11.68C49.2572 11.2 50.3905 10.8133 51.6972 10.52C53.0039 10.2267 54.2705 10.08 55.4972 10.08C57.2039 10.08 58.5505 10.3733 59.5372 10.96Z" fill="#1E1E1E"/>
<path d="M7.32 25.4C7.32 24.6 7.86667 23.8533 8.96 23.16C10.08 22.4667 11.6267 21.9067 13.6 21.48C15.6 21.0267 17.88 20.76 20.44 20.68H21.44C23.44 20.68 25.3067 20.8533 27.04 21.2C28.7733 21.5467 30.1733 22.04 31.24 22.68C32.3067 23.2933 32.8933 23.9733 33 24.72C33.16 25.9733 32.4933 27.08 31 28.04C29.5067 29 27.44 29.96 24.8 30.92C25.44 30.84 26.0667 30.8 26.68 30.8C27.96 30.8 29.1867 30.92 30.36 31.16C31.56 31.4267 32.5467 31.76 33.32 32.16C34.0933 32.5867 34.5333 33 34.64 33.4C34.6933 33.6133 34.72 33.7867 34.72 33.92C34.72 35.2267 33.36 36.2533 30.64 37C27.9467 37.7467 24.76 38.2533 21.08 38.52C19.24 38.68 17.4 38.76 15.56 38.76C10.3333 38.76 7.72 37.8 7.72 35.88C7.72 34.5467 8.82667 33.1867 11.04 31.8C13.2533 30.4133 16.1067 29.2267 19.6 28.24C18.4533 28.4 17.16 28.48 15.72 28.48C13.3733 28.48 11.3867 28.24 9.76 27.76C8.13333 27.2533 7.32 26.4667 7.32 25.4ZM0 4.52C0 3.96 0.44 3.41333 1.32 2.88C2.22667 2.34667 3.45333 1.88 5 1.48C6.54667 1.05333 8.25333 0.759998 10.12 0.599999C11.72 0.466666 13 0.4 13.96 0.4C15.7733 0.4 17.16 0.599999 18.12 0.999999C19.1067 1.37333 19.6533 1.98667 19.76 2.84C19.8667 3.64 18.9333 4.42666 16.96 5.2C15.0133 5.94667 12.5867 6.50667 9.68 6.88C9.94667 7.01333 10.2133 7.38667 10.48 8C12.2933 7.36 14.16 7.04 16.08 7.04C17.2267 7.04 18.12 7.18667 18.76 7.48C19.4 7.77333 19.72 8.21333 19.72 8.8C19.72 9.38666 19.2667 9.92 18.36 10.4C17.4533 10.8533 16.0267 11.2933 14.08 11.72C13.2 11.9333 12.24 12.08 11.2 12.16C11.2 13.0133 11.0933 13.64 10.88 14.04C11.7867 13.48 12.9067 13.0667 14.24 12.8C15.6 12.5067 16.96 12.36 18.32 12.36C19.6 12.36 20.6933 12.48 21.6 12.72C22.5067 12.96 23.0133 13.28 23.12 13.68C23.1467 13.7867 23.16 13.9467 23.16 14.16C23.16 15.0933 22.4667 16 21.08 16.88C19.6933 17.7333 17.8267 18.4667 15.48 19.08C13.1333 19.6667 10.6 20.0533 7.88 20.24L7.04 20.28C5.44 20.28 4.09333 20 3 19.44C1.90667 18.8533 1.25333 18.08 1.04 17.12C0.906667 16.5067 0.84 15.8933 0.84 15.28C0.84 13.52 1.24 11.84 2.04 10.24C2.86667 8.61333 4.01333 7.49333 5.48 6.88C4.49333 6.88 3.57333 6.77333 2.72 6.56C1.89333 6.32 1.22667 6.02667 0.72 5.68C0.24 5.30667 0 4.92 0 4.52ZM20.6 7.36C20.6533 6.32 21.2133 5.46667 22.28 4.8C23.3467 4.13333 24.5867 3.73333 26 3.6C27.0133 1.2 28.36 0 30.04 0C31.4533 0.0266663 32.5333 0.906667 33.28 2.64C34.0267 4.37333 34.4 6.54666 34.4 9.16C34.4 11.1867 34.2 13.0667 33.8 14.8C33.4 16.5067 32.8 17.88 32 18.92C31.2267 19.96 30.2933 20.48 29.2 20.48C27.7067 20.48 26.5733 19.5733 25.8 17.76C25.0533 15.9467 24.6933 13.68 24.72 10.96C21.84 10.9067 20.4667 9.70667 20.6 7.36Z" fill="#1E1E1E"/>
<path d="M155.477 19.4287C155.477 19.66 155.237 20.0501 154.94 20.0497C154.642 20.0492 154.401 19.6188 154.401 19.4271C154.401 19.2355 154.642 19.0804 154.939 19.0809C155.237 19.0813 155.477 19.237 155.477 19.4287Z" fill="white"/>
<path d="M150.697 18.6081C150.141 19.4968 149.153 19.8215 148.687 19.4347C148.22 19.0479 149.018 18.3622 149.574 17.4735C150.131 16.5847 150.45 16.3666 150.896 16.5327C151.363 16.9195 151.253 17.7193 150.697 18.6081Z" fill="white"/>
<path d="M159.323 18.6081C159.879 19.4968 160.867 19.8215 161.334 19.4347C161.8 19.0479 161.002 18.3622 160.446 17.4735C159.89 16.5847 159.57 16.3666 159.124 16.5327C158.658 16.9195 158.767 17.7193 159.323 18.6081Z" fill="white"/>
<path d="M136.098 9.12299C136.218 9.40445 136.108 9.91786 135.587 10.0676C135.066 10.2173 134.31 9.89828 134.212 9.66511C134.113 9.43194 134.455 9.12156 134.976 8.97186C135.497 8.82216 136 8.88983 136.098 9.12299Z" fill="white"/>
<path d="M133.292 1.65337C133.732 1.30652 134.463 1.48139 134.608 1.96814L135.098 3.61092C135.243 4.09767 134.694 4.53124 134.109 4.39135L132.135 3.9192C131.55 3.7793 131.369 3.17086 131.809 2.82401L133.292 1.65337Z" fill="#1E1E1E"/>
<path d="M124.512 4.1559C124.389 3.6649 124.959 3.24911 125.537 3.40748L127.487 3.94199C128.065 4.10037 128.217 4.71412 127.762 5.04674L126.224 6.16937C125.769 6.50199 125.046 6.30403 124.924 5.81303L124.512 4.1559Z" fill="white"/>
</svg>
